<mxfile host="app.diagrams.net" modified="2021-03-29T11:27:47.890Z" agent="5.0 (Windows NT 10.0; Win64; x64) AppleWebKit/537.36 (KHTML, like Gecko) Chrome/78.0.3904.108 Safari/537.36" etag="v6IHKXvSI9ZgflP0CsME" version="14.5.3" type="github">
  <diagram id="suw4fJygjTFkksd4odNc" name="Page-1">
    <mxGraphModel dx="1422" dy="2416" grid="1" gridSize="10" guides="1" tooltips="1" connect="1" arrows="1" fold="1" page="1" pageScale="1" pageWidth="1169" pageHeight="1654" math="0" shadow="0">
      <root>
        <mxCell id="0" />
        <mxCell id="1" parent="0" />
        <mxCell id="g7mf5nBo5XgfSmo-i4nr-143" value="" style="shape=table;html=1;whiteSpace=wrap;startSize=0;container=1;collapsible=0;childLayout=tableLayout;fillColor=#dae8fc;strokeColor=#6c8ebf;shadow=0;sketch=0;" parent="1" vertex="1">
          <mxGeometry x="240" y="-1134" width="300" height="40" as="geometry" />
        </mxCell>
        <mxCell id="g7mf5nBo5XgfSmo-i4nr-144" value="" style="shape=partialRectangle;html=1;whiteSpace=wrap;collapsible=0;dropTarget=0;pointerEvents=0;fillColor=none;top=0;left=0;bottom=0;right=0;points=[[0,0.5],[1,0.5]];portConstraint=eastwest;" parent="g7mf5nBo5XgfSmo-i4nr-143" vertex="1">
          <mxGeometry width="300" height="40" as="geometry" />
        </mxCell>
        <mxCell id="g7mf5nBo5XgfSmo-i4nr-145" value="4" style="shape=partialRectangle;html=1;whiteSpace=wrap;connectable=0;overflow=hidden;fillColor=none;top=0;left=0;bottom=0;right=0;" parent="g7mf5nBo5XgfSmo-i4nr-144" vertex="1">
          <mxGeometry width="60" height="40" as="geometry" />
        </mxCell>
        <mxCell id="g7mf5nBo5XgfSmo-i4nr-146" value="5" style="shape=partialRectangle;html=1;whiteSpace=wrap;connectable=0;overflow=hidden;fillColor=none;top=0;left=0;bottom=0;right=0;" parent="g7mf5nBo5XgfSmo-i4nr-144" vertex="1">
          <mxGeometry x="60" width="60" height="40" as="geometry" />
        </mxCell>
        <mxCell id="g7mf5nBo5XgfSmo-i4nr-147" value="2" style="shape=partialRectangle;html=1;whiteSpace=wrap;connectable=0;overflow=hidden;fillColor=none;top=0;left=0;bottom=0;right=0;" parent="g7mf5nBo5XgfSmo-i4nr-144" vertex="1">
          <mxGeometry x="120" width="60" height="40" as="geometry" />
        </mxCell>
        <mxCell id="g7mf5nBo5XgfSmo-i4nr-148" value="3" style="shape=partialRectangle;html=1;whiteSpace=wrap;connectable=0;overflow=hidden;fillColor=none;top=0;left=0;bottom=0;right=0;" parent="g7mf5nBo5XgfSmo-i4nr-144" vertex="1">
          <mxGeometry x="180" width="60" height="40" as="geometry" />
        </mxCell>
        <mxCell id="g7mf5nBo5XgfSmo-i4nr-149" value="1" style="shape=partialRectangle;html=1;whiteSpace=wrap;connectable=0;overflow=hidden;fillColor=none;top=0;left=0;bottom=0;right=0;" parent="g7mf5nBo5XgfSmo-i4nr-144" vertex="1">
          <mxGeometry x="240" width="60" height="40" as="geometry" />
        </mxCell>
        <mxCell id="g7mf5nBo5XgfSmo-i4nr-150" value="" style="endArrow=classic;html=1;shadow=0;startArrow=none;startFill=0;entryX=0.097;entryY=0.05;entryDx=0;entryDy=0;entryPerimeter=0;exitX=0.477;exitY=1;exitDx=0;exitDy=0;exitPerimeter=0;" parent="1" source="g7mf5nBo5XgfSmo-i4nr-151" edge="1">
          <mxGeometry width="50" height="50" relative="1" as="geometry">
            <mxPoint x="389" y="-1150" as="sourcePoint" />
            <mxPoint x="389.0999999999999" y="-1132" as="targetPoint" />
          </mxGeometry>
        </mxCell>
        <mxCell id="g7mf5nBo5XgfSmo-i4nr-151" value="&lt;font style=&quot;font-size: 16px&quot;&gt;i&lt;/font&gt;" style="text;html=1;strokeColor=none;fillColor=none;align=center;verticalAlign=middle;whiteSpace=wrap;rounded=0;shadow=0;comic=0;sketch=1;" parent="1" vertex="1">
          <mxGeometry x="370" y="-1180" width="40" height="20" as="geometry" />
        </mxCell>
        <mxCell id="g7mf5nBo5XgfSmo-i4nr-152" value="" style="endArrow=none;html=1;shadow=0;startArrow=classic;startFill=1;endFill=0;entryX=0.5;entryY=0;entryDx=0;entryDy=0;entryPerimeter=0;" parent="1" edge="1">
          <mxGeometry width="50" height="50" relative="1" as="geometry">
            <mxPoint x="389.5" y="-1094" as="sourcePoint" />
            <mxPoint x="390" y="-1070" as="targetPoint" />
          </mxGeometry>
        </mxCell>
        <mxCell id="g7mf5nBo5XgfSmo-i4nr-153" value="&lt;span style=&quot;font-size: 16px&quot;&gt;j&lt;/span&gt;" style="text;html=1;strokeColor=none;fillColor=none;align=center;verticalAlign=middle;whiteSpace=wrap;rounded=0;shadow=0;comic=0;sketch=1;" parent="1" vertex="1">
          <mxGeometry x="370" y="-1070" width="40" height="20" as="geometry" />
        </mxCell>
        <mxCell id="g7mf5nBo5XgfSmo-i4nr-156" value="" style="shape=table;html=1;whiteSpace=wrap;startSize=0;container=1;collapsible=0;childLayout=tableLayout;fillColor=#dae8fc;strokeColor=#6c8ebf;shadow=0;sketch=0;" parent="1" vertex="1">
          <mxGeometry x="240" y="-1004" width="300" height="40" as="geometry" />
        </mxCell>
        <mxCell id="g7mf5nBo5XgfSmo-i4nr-157" value="" style="shape=partialRectangle;html=1;whiteSpace=wrap;collapsible=0;dropTarget=0;pointerEvents=0;fillColor=none;top=0;left=0;bottom=0;right=0;points=[[0,0.5],[1,0.5]];portConstraint=eastwest;" parent="g7mf5nBo5XgfSmo-i4nr-156" vertex="1">
          <mxGeometry width="300" height="40" as="geometry" />
        </mxCell>
        <mxCell id="g7mf5nBo5XgfSmo-i4nr-158" value="4" style="shape=partialRectangle;html=1;whiteSpace=wrap;connectable=0;overflow=hidden;fillColor=none;top=0;left=0;bottom=0;right=0;" parent="g7mf5nBo5XgfSmo-i4nr-157" vertex="1">
          <mxGeometry width="60" height="40" as="geometry" />
        </mxCell>
        <mxCell id="g7mf5nBo5XgfSmo-i4nr-159" value="5" style="shape=partialRectangle;html=1;whiteSpace=wrap;connectable=0;overflow=hidden;fillColor=none;top=0;left=0;bottom=0;right=0;" parent="g7mf5nBo5XgfSmo-i4nr-157" vertex="1">
          <mxGeometry x="60" width="60" height="40" as="geometry" />
        </mxCell>
        <mxCell id="g7mf5nBo5XgfSmo-i4nr-160" value="2" style="shape=partialRectangle;html=1;whiteSpace=wrap;connectable=0;overflow=hidden;fillColor=none;top=0;left=0;bottom=0;right=0;" parent="g7mf5nBo5XgfSmo-i4nr-157" vertex="1">
          <mxGeometry x="120" width="60" height="40" as="geometry" />
        </mxCell>
        <mxCell id="g7mf5nBo5XgfSmo-i4nr-161" value="3" style="shape=partialRectangle;html=1;whiteSpace=wrap;connectable=0;overflow=hidden;fillColor=none;top=0;left=0;bottom=0;right=0;" parent="g7mf5nBo5XgfSmo-i4nr-157" vertex="1">
          <mxGeometry x="180" width="60" height="40" as="geometry" />
        </mxCell>
        <mxCell id="g7mf5nBo5XgfSmo-i4nr-162" value="1" style="shape=partialRectangle;html=1;whiteSpace=wrap;connectable=0;overflow=hidden;fillColor=none;top=0;left=0;bottom=0;right=0;" parent="g7mf5nBo5XgfSmo-i4nr-157" vertex="1">
          <mxGeometry x="240" width="60" height="40" as="geometry" />
        </mxCell>
        <mxCell id="g7mf5nBo5XgfSmo-i4nr-163" value="" style="endArrow=classic;html=1;shadow=0;startArrow=none;startFill=0;entryX=0.097;entryY=0.05;entryDx=0;entryDy=0;entryPerimeter=0;exitX=0.477;exitY=1;exitDx=0;exitDy=0;exitPerimeter=0;" parent="1" source="g7mf5nBo5XgfSmo-i4nr-164" edge="1">
          <mxGeometry width="50" height="50" relative="1" as="geometry">
            <mxPoint x="389" y="-1020" as="sourcePoint" />
            <mxPoint x="389.0999999999999" y="-1002" as="targetPoint" />
          </mxGeometry>
        </mxCell>
        <mxCell id="g7mf5nBo5XgfSmo-i4nr-164" value="&lt;font style=&quot;font-size: 16px&quot;&gt;i&lt;/font&gt;" style="text;html=1;strokeColor=none;fillColor=none;align=center;verticalAlign=middle;whiteSpace=wrap;rounded=0;shadow=0;comic=0;sketch=1;" parent="1" vertex="1">
          <mxGeometry x="370" y="-1050" width="40" height="20" as="geometry" />
        </mxCell>
        <mxCell id="g7mf5nBo5XgfSmo-i4nr-165" value="" style="endArrow=none;html=1;shadow=0;startArrow=classic;startFill=1;endFill=0;entryX=0.5;entryY=0;entryDx=0;entryDy=0;entryPerimeter=0;" parent="1" edge="1">
          <mxGeometry width="50" height="50" relative="1" as="geometry">
            <mxPoint x="329.5" y="-964" as="sourcePoint" />
            <mxPoint x="330" y="-940" as="targetPoint" />
          </mxGeometry>
        </mxCell>
        <mxCell id="g7mf5nBo5XgfSmo-i4nr-166" value="&lt;span style=&quot;font-size: 16px&quot;&gt;j&lt;/span&gt;" style="text;html=1;strokeColor=none;fillColor=none;align=center;verticalAlign=middle;whiteSpace=wrap;rounded=0;shadow=0;comic=0;sketch=1;" parent="1" vertex="1">
          <mxGeometry x="310" y="-940" width="40" height="20" as="geometry" />
        </mxCell>
        <mxCell id="g7mf5nBo5XgfSmo-i4nr-168" value="" style="shape=table;html=1;whiteSpace=wrap;startSize=0;container=1;collapsible=0;childLayout=tableLayout;fillColor=#dae8fc;strokeColor=#6c8ebf;shadow=0;sketch=0;" parent="1" vertex="1">
          <mxGeometry x="240" y="-884" width="300" height="40" as="geometry" />
        </mxCell>
        <mxCell id="g7mf5nBo5XgfSmo-i4nr-169" value="" style="shape=partialRectangle;html=1;whiteSpace=wrap;collapsible=0;dropTarget=0;pointerEvents=0;fillColor=none;top=0;left=0;bottom=0;right=0;points=[[0,0.5],[1,0.5]];portConstraint=eastwest;" parent="g7mf5nBo5XgfSmo-i4nr-168" vertex="1">
          <mxGeometry width="300" height="40" as="geometry" />
        </mxCell>
        <mxCell id="g7mf5nBo5XgfSmo-i4nr-170" value="4" style="shape=partialRectangle;html=1;whiteSpace=wrap;connectable=0;overflow=hidden;fillColor=none;top=0;left=0;bottom=0;right=0;" parent="g7mf5nBo5XgfSmo-i4nr-169" vertex="1">
          <mxGeometry width="60" height="40" as="geometry" />
        </mxCell>
        <mxCell id="g7mf5nBo5XgfSmo-i4nr-171" value="5" style="shape=partialRectangle;html=1;whiteSpace=wrap;connectable=0;overflow=hidden;fillColor=none;top=0;left=0;bottom=0;right=0;" parent="g7mf5nBo5XgfSmo-i4nr-169" vertex="1">
          <mxGeometry x="60" width="60" height="40" as="geometry" />
        </mxCell>
        <mxCell id="g7mf5nBo5XgfSmo-i4nr-172" value="&lt;font color=&quot;#ff0000&quot;&gt;5&lt;/font&gt;" style="shape=partialRectangle;html=1;whiteSpace=wrap;connectable=0;overflow=hidden;fillColor=none;top=0;left=0;bottom=0;right=0;" parent="g7mf5nBo5XgfSmo-i4nr-169" vertex="1">
          <mxGeometry x="120" width="60" height="40" as="geometry" />
        </mxCell>
        <mxCell id="g7mf5nBo5XgfSmo-i4nr-173" value="3" style="shape=partialRectangle;html=1;whiteSpace=wrap;connectable=0;overflow=hidden;fillColor=none;top=0;left=0;bottom=0;right=0;" parent="g7mf5nBo5XgfSmo-i4nr-169" vertex="1">
          <mxGeometry x="180" width="60" height="40" as="geometry" />
        </mxCell>
        <mxCell id="g7mf5nBo5XgfSmo-i4nr-174" value="1" style="shape=partialRectangle;html=1;whiteSpace=wrap;connectable=0;overflow=hidden;fillColor=none;top=0;left=0;bottom=0;right=0;" parent="g7mf5nBo5XgfSmo-i4nr-169" vertex="1">
          <mxGeometry x="240" width="60" height="40" as="geometry" />
        </mxCell>
        <mxCell id="g7mf5nBo5XgfSmo-i4nr-175" value="" style="endArrow=classic;html=1;shadow=0;startArrow=none;startFill=0;entryX=0.097;entryY=0.05;entryDx=0;entryDy=0;entryPerimeter=0;exitX=0.477;exitY=1;exitDx=0;exitDy=0;exitPerimeter=0;" parent="1" source="g7mf5nBo5XgfSmo-i4nr-176" edge="1">
          <mxGeometry width="50" height="50" relative="1" as="geometry">
            <mxPoint x="389" y="-900" as="sourcePoint" />
            <mxPoint x="389.0999999999999" y="-882" as="targetPoint" />
          </mxGeometry>
        </mxCell>
        <mxCell id="g7mf5nBo5XgfSmo-i4nr-176" value="&lt;font style=&quot;font-size: 16px&quot;&gt;i&lt;/font&gt;" style="text;html=1;strokeColor=none;fillColor=none;align=center;verticalAlign=middle;whiteSpace=wrap;rounded=0;shadow=0;comic=0;sketch=1;" parent="1" vertex="1">
          <mxGeometry x="370" y="-930" width="40" height="20" as="geometry" />
        </mxCell>
        <mxCell id="g7mf5nBo5XgfSmo-i4nr-177" value="" style="endArrow=none;html=1;shadow=0;startArrow=classic;startFill=1;endFill=0;entryX=0.5;entryY=0;entryDx=0;entryDy=0;entryPerimeter=0;" parent="1" edge="1">
          <mxGeometry width="50" height="50" relative="1" as="geometry">
            <mxPoint x="329.5" y="-844" as="sourcePoint" />
            <mxPoint x="330" y="-820" as="targetPoint" />
          </mxGeometry>
        </mxCell>
        <mxCell id="g7mf5nBo5XgfSmo-i4nr-178" value="&lt;span style=&quot;font-size: 16px&quot;&gt;j&lt;/span&gt;" style="text;html=1;strokeColor=none;fillColor=none;align=center;verticalAlign=middle;whiteSpace=wrap;rounded=0;shadow=0;comic=0;sketch=1;" parent="1" vertex="1">
          <mxGeometry x="310" y="-820" width="40" height="20" as="geometry" />
        </mxCell>
        <mxCell id="g7mf5nBo5XgfSmo-i4nr-179" value="2" style="rounded=0;whiteSpace=wrap;html=1;sketch=0;strokeColor=#6c8ebf;fillColor=#dae8fc;" parent="1" vertex="1">
          <mxGeometry x="585" y="-1006" width="50" height="44" as="geometry" />
        </mxCell>
        <mxCell id="g7mf5nBo5XgfSmo-i4nr-180" value="&lt;font color=&quot;#000000&quot;&gt;tmp&lt;/font&gt;" style="text;html=1;strokeColor=none;fillColor=none;align=center;verticalAlign=middle;whiteSpace=wrap;rounded=0;sketch=0;fontColor=#FFFFFF;" parent="1" vertex="1">
          <mxGeometry x="590" y="-1030" width="40" height="20" as="geometry" />
        </mxCell>
        <mxCell id="g7mf5nBo5XgfSmo-i4nr-181" value="2" style="rounded=0;whiteSpace=wrap;html=1;sketch=0;strokeColor=#6c8ebf;fillColor=#dae8fc;" parent="1" vertex="1">
          <mxGeometry x="585" y="-888" width="50" height="44" as="geometry" />
        </mxCell>
        <mxCell id="g7mf5nBo5XgfSmo-i4nr-182" value="&lt;font color=&quot;#000000&quot;&gt;tmp&lt;/font&gt;" style="text;html=1;strokeColor=none;fillColor=none;align=center;verticalAlign=middle;whiteSpace=wrap;rounded=0;sketch=0;fontColor=#FFFFFF;" parent="1" vertex="1">
          <mxGeometry x="590" y="-912" width="40" height="20" as="geometry" />
        </mxCell>
        <mxCell id="g7mf5nBo5XgfSmo-i4nr-183" value="" style="shape=table;html=1;whiteSpace=wrap;startSize=0;container=1;collapsible=0;childLayout=tableLayout;fillColor=#dae8fc;strokeColor=#6c8ebf;shadow=0;sketch=0;" parent="1" vertex="1">
          <mxGeometry x="240" y="-764" width="300" height="40" as="geometry" />
        </mxCell>
        <mxCell id="g7mf5nBo5XgfSmo-i4nr-184" value="" style="shape=partialRectangle;html=1;whiteSpace=wrap;collapsible=0;dropTarget=0;pointerEvents=0;fillColor=none;top=0;left=0;bottom=0;right=0;points=[[0,0.5],[1,0.5]];portConstraint=eastwest;" parent="g7mf5nBo5XgfSmo-i4nr-183" vertex="1">
          <mxGeometry width="300" height="40" as="geometry" />
        </mxCell>
        <mxCell id="g7mf5nBo5XgfSmo-i4nr-185" value="4" style="shape=partialRectangle;html=1;whiteSpace=wrap;connectable=0;overflow=hidden;fillColor=none;top=0;left=0;bottom=0;right=0;" parent="g7mf5nBo5XgfSmo-i4nr-184" vertex="1">
          <mxGeometry width="60" height="40" as="geometry" />
        </mxCell>
        <mxCell id="g7mf5nBo5XgfSmo-i4nr-186" value="&lt;font color=&quot;#ff0000&quot;&gt;4&lt;/font&gt;" style="shape=partialRectangle;html=1;whiteSpace=wrap;connectable=0;overflow=hidden;fillColor=none;top=0;left=0;bottom=0;right=0;" parent="g7mf5nBo5XgfSmo-i4nr-184" vertex="1">
          <mxGeometry x="60" width="60" height="40" as="geometry" />
        </mxCell>
        <mxCell id="g7mf5nBo5XgfSmo-i4nr-187" value="&lt;font color=&quot;#ff0000&quot;&gt;5&lt;/font&gt;" style="shape=partialRectangle;html=1;whiteSpace=wrap;connectable=0;overflow=hidden;fillColor=none;top=0;left=0;bottom=0;right=0;" parent="g7mf5nBo5XgfSmo-i4nr-184" vertex="1">
          <mxGeometry x="120" width="60" height="40" as="geometry" />
        </mxCell>
        <mxCell id="g7mf5nBo5XgfSmo-i4nr-188" value="3" style="shape=partialRectangle;html=1;whiteSpace=wrap;connectable=0;overflow=hidden;fillColor=none;top=0;left=0;bottom=0;right=0;" parent="g7mf5nBo5XgfSmo-i4nr-184" vertex="1">
          <mxGeometry x="180" width="60" height="40" as="geometry" />
        </mxCell>
        <mxCell id="g7mf5nBo5XgfSmo-i4nr-189" value="1" style="shape=partialRectangle;html=1;whiteSpace=wrap;connectable=0;overflow=hidden;fillColor=none;top=0;left=0;bottom=0;right=0;" parent="g7mf5nBo5XgfSmo-i4nr-184" vertex="1">
          <mxGeometry x="240" width="60" height="40" as="geometry" />
        </mxCell>
        <mxCell id="g7mf5nBo5XgfSmo-i4nr-190" value="" style="endArrow=classic;html=1;shadow=0;startArrow=none;startFill=0;entryX=0.097;entryY=0.05;entryDx=0;entryDy=0;entryPerimeter=0;exitX=0.477;exitY=1;exitDx=0;exitDy=0;exitPerimeter=0;" parent="1" source="g7mf5nBo5XgfSmo-i4nr-191" edge="1">
          <mxGeometry width="50" height="50" relative="1" as="geometry">
            <mxPoint x="389" y="-780" as="sourcePoint" />
            <mxPoint x="389.0999999999999" y="-762" as="targetPoint" />
          </mxGeometry>
        </mxCell>
        <mxCell id="g7mf5nBo5XgfSmo-i4nr-191" value="&lt;font style=&quot;font-size: 16px&quot;&gt;i&lt;/font&gt;" style="text;html=1;strokeColor=none;fillColor=none;align=center;verticalAlign=middle;whiteSpace=wrap;rounded=0;shadow=0;comic=0;sketch=1;" parent="1" vertex="1">
          <mxGeometry x="370" y="-810" width="40" height="20" as="geometry" />
        </mxCell>
        <mxCell id="g7mf5nBo5XgfSmo-i4nr-192" value="" style="endArrow=none;html=1;shadow=0;startArrow=classic;startFill=1;endFill=0;entryX=0.5;entryY=0;entryDx=0;entryDy=0;entryPerimeter=0;" parent="1" edge="1">
          <mxGeometry width="50" height="50" relative="1" as="geometry">
            <mxPoint x="269.5" y="-724" as="sourcePoint" />
            <mxPoint x="270" y="-700" as="targetPoint" />
          </mxGeometry>
        </mxCell>
        <mxCell id="g7mf5nBo5XgfSmo-i4nr-193" value="&lt;span style=&quot;font-size: 16px&quot;&gt;j&lt;/span&gt;" style="text;html=1;strokeColor=none;fillColor=none;align=center;verticalAlign=middle;whiteSpace=wrap;rounded=0;shadow=0;comic=0;sketch=1;" parent="1" vertex="1">
          <mxGeometry x="250" y="-700" width="40" height="20" as="geometry" />
        </mxCell>
        <mxCell id="g7mf5nBo5XgfSmo-i4nr-194" value="2" style="rounded=0;whiteSpace=wrap;html=1;sketch=0;strokeColor=#6c8ebf;fillColor=#dae8fc;" parent="1" vertex="1">
          <mxGeometry x="585" y="-768" width="50" height="44" as="geometry" />
        </mxCell>
        <mxCell id="g7mf5nBo5XgfSmo-i4nr-195" value="&lt;font color=&quot;#000000&quot;&gt;tmp&lt;/font&gt;" style="text;html=1;strokeColor=none;fillColor=none;align=center;verticalAlign=middle;whiteSpace=wrap;rounded=0;sketch=0;fontColor=#FFFFFF;" parent="1" vertex="1">
          <mxGeometry x="590" y="-792" width="40" height="20" as="geometry" />
        </mxCell>
        <mxCell id="g7mf5nBo5XgfSmo-i4nr-196" value="" style="shape=table;html=1;whiteSpace=wrap;startSize=0;container=1;collapsible=0;childLayout=tableLayout;fillColor=#dae8fc;strokeColor=#6c8ebf;shadow=0;sketch=0;" parent="1" vertex="1">
          <mxGeometry x="240" y="-644" width="300" height="40" as="geometry" />
        </mxCell>
        <mxCell id="g7mf5nBo5XgfSmo-i4nr-197" value="" style="shape=partialRectangle;html=1;whiteSpace=wrap;collapsible=0;dropTarget=0;pointerEvents=0;fillColor=none;top=0;left=0;bottom=0;right=0;points=[[0,0.5],[1,0.5]];portConstraint=eastwest;" parent="g7mf5nBo5XgfSmo-i4nr-196" vertex="1">
          <mxGeometry width="300" height="40" as="geometry" />
        </mxCell>
        <mxCell id="g7mf5nBo5XgfSmo-i4nr-198" value="&lt;font color=&quot;#ff0000&quot;&gt;2&lt;/font&gt;" style="shape=partialRectangle;html=1;whiteSpace=wrap;connectable=0;overflow=hidden;fillColor=none;top=0;left=0;bottom=0;right=0;" parent="g7mf5nBo5XgfSmo-i4nr-197" vertex="1">
          <mxGeometry width="60" height="40" as="geometry" />
        </mxCell>
        <mxCell id="g7mf5nBo5XgfSmo-i4nr-199" value="&lt;font color=&quot;#ff0000&quot;&gt;4&lt;/font&gt;" style="shape=partialRectangle;html=1;whiteSpace=wrap;connectable=0;overflow=hidden;fillColor=none;top=0;left=0;bottom=0;right=0;" parent="g7mf5nBo5XgfSmo-i4nr-197" vertex="1">
          <mxGeometry x="60" width="60" height="40" as="geometry" />
        </mxCell>
        <mxCell id="g7mf5nBo5XgfSmo-i4nr-200" value="&lt;font color=&quot;#ff0000&quot;&gt;5&lt;/font&gt;" style="shape=partialRectangle;html=1;whiteSpace=wrap;connectable=0;overflow=hidden;fillColor=none;top=0;left=0;bottom=0;right=0;" parent="g7mf5nBo5XgfSmo-i4nr-197" vertex="1">
          <mxGeometry x="120" width="60" height="40" as="geometry" />
        </mxCell>
        <mxCell id="g7mf5nBo5XgfSmo-i4nr-201" value="3" style="shape=partialRectangle;html=1;whiteSpace=wrap;connectable=0;overflow=hidden;fillColor=none;top=0;left=0;bottom=0;right=0;" parent="g7mf5nBo5XgfSmo-i4nr-197" vertex="1">
          <mxGeometry x="180" width="60" height="40" as="geometry" />
        </mxCell>
        <mxCell id="g7mf5nBo5XgfSmo-i4nr-202" value="1" style="shape=partialRectangle;html=1;whiteSpace=wrap;connectable=0;overflow=hidden;fillColor=none;top=0;left=0;bottom=0;right=0;" parent="g7mf5nBo5XgfSmo-i4nr-197" vertex="1">
          <mxGeometry x="240" width="60" height="40" as="geometry" />
        </mxCell>
        <mxCell id="g7mf5nBo5XgfSmo-i4nr-203" value="" style="endArrow=classic;html=1;shadow=0;startArrow=none;startFill=0;entryX=0.097;entryY=0.05;entryDx=0;entryDy=0;entryPerimeter=0;exitX=0.477;exitY=1;exitDx=0;exitDy=0;exitPerimeter=0;" parent="1" source="g7mf5nBo5XgfSmo-i4nr-204" edge="1">
          <mxGeometry width="50" height="50" relative="1" as="geometry">
            <mxPoint x="389" y="-660" as="sourcePoint" />
            <mxPoint x="389.0999999999999" y="-642" as="targetPoint" />
          </mxGeometry>
        </mxCell>
        <mxCell id="g7mf5nBo5XgfSmo-i4nr-204" value="&lt;font style=&quot;font-size: 16px&quot;&gt;i&lt;/font&gt;" style="text;html=1;strokeColor=none;fillColor=none;align=center;verticalAlign=middle;whiteSpace=wrap;rounded=0;shadow=0;comic=0;sketch=1;" parent="1" vertex="1">
          <mxGeometry x="370" y="-690" width="40" height="20" as="geometry" />
        </mxCell>
        <mxCell id="g7mf5nBo5XgfSmo-i4nr-205" value="" style="endArrow=none;html=1;shadow=0;startArrow=classic;startFill=1;endFill=0;entryX=0.5;entryY=0;entryDx=0;entryDy=0;entryPerimeter=0;" parent="1" edge="1">
          <mxGeometry width="50" height="50" relative="1" as="geometry">
            <mxPoint x="269.5" y="-604" as="sourcePoint" />
            <mxPoint x="270" y="-580" as="targetPoint" />
          </mxGeometry>
        </mxCell>
        <mxCell id="g7mf5nBo5XgfSmo-i4nr-206" value="&lt;span style=&quot;font-size: 16px&quot;&gt;j&lt;/span&gt;" style="text;html=1;strokeColor=none;fillColor=none;align=center;verticalAlign=middle;whiteSpace=wrap;rounded=0;shadow=0;comic=0;sketch=1;" parent="1" vertex="1">
          <mxGeometry x="250" y="-580" width="40" height="20" as="geometry" />
        </mxCell>
        <mxCell id="g7mf5nBo5XgfSmo-i4nr-207" value="2" style="rounded=0;whiteSpace=wrap;html=1;sketch=0;strokeColor=#6c8ebf;fillColor=#dae8fc;" parent="1" vertex="1">
          <mxGeometry x="585" y="-648" width="50" height="44" as="geometry" />
        </mxCell>
        <mxCell id="g7mf5nBo5XgfSmo-i4nr-208" value="&lt;font color=&quot;#000000&quot;&gt;tmp&lt;/font&gt;" style="text;html=1;strokeColor=none;fillColor=none;align=center;verticalAlign=middle;whiteSpace=wrap;rounded=0;sketch=0;fontColor=#FFFFFF;" parent="1" vertex="1">
          <mxGeometry x="590" y="-672" width="40" height="20" as="geometry" />
        </mxCell>
      </root>
    </mxGraphModel>
  </diagram>
</mxfile>
